<svg width="30" height="30" viewBox="0 0 30 30" fill="none" xmlns="http://www.w3.org/2000/svg">
<path d="M12.1729 13.2227C12.135 12.1273 12.1519 10.9918 12.1793 10.1142C12.9532 10.5292 13.9449 11.0823 14.8747 11.6628C15.5042 12.0559 16.0884 12.4512 16.5516 12.8162C17.0437 13.2039 17.2986 13.4809 17.3817 13.6248C17.4647 13.7687 17.5772 14.128 17.6669 14.748C17.7514 15.3316 17.8016 16.0352 17.8273 16.7769C17.8652 17.8724 17.8483 19.0078 17.8208 19.8855C17.047 19.4705 16.0552 18.9174 15.1255 18.3368C14.496 17.9438 13.9118 17.5485 13.4485 17.1835C12.9565 16.7957 12.7016 16.5187 12.6185 16.3748C12.5354 16.2309 12.423 15.8717 12.3332 15.2517C12.2487 14.668 12.1985 13.9644 12.1729 13.2227Z" stroke="#41300E" stroke-width="2"/>
<circle cx="15" cy="15" r="11.25" stroke="#41300E" stroke-width="2"/>
</svg>
