<svg width="35" height="35" viewBox="0 0 35 35" fill="none" xmlns="http://www.w3.org/2000/svg">
<circle cx="17.5" cy="11.6667" r="4.83333" stroke="#41300E" stroke-width="2" stroke-linecap="round"/>
<path d="M21.8688 11.4375C22.3164 10.6623 23.0536 10.0967 23.9182 9.865C24.7828 9.63333 25.704 9.75461 26.4792 10.2022C27.2544 10.6497 27.82 11.3869 28.0517 12.2515C28.2833 13.1161 28.1621 14.0373 27.7145 14.8125C27.267 15.5877 26.5298 16.1533 25.6652 16.385C24.8006 16.6167 23.8794 16.4954 23.1042 16.0478C22.329 15.6003 21.7633 14.8631 21.5317 13.9985C21.3 13.1339 21.4213 12.2127 21.8688 11.4375L21.8688 11.4375Z" stroke="#41300E" stroke-width="2"/>
<path d="M7.28549 11.4375C7.73305 10.6623 8.47021 10.0967 9.33481 9.865C10.1994 9.63333 11.1206 9.75461 11.8958 10.2022C12.671 10.6497 13.2367 11.3869 13.4683 12.2515C13.7 13.1161 13.5787 14.0373 13.1312 14.8125C12.6836 15.5877 11.9464 16.1533 11.0818 16.385C10.2172 16.6167 9.29601 16.4954 8.52083 16.0478C7.74564 15.6003 7.18 14.8631 6.94833 13.9985C6.71666 13.1339 6.83794 12.2127 7.28549 11.4375L7.28549 11.4375Z" stroke="#41300E" stroke-width="2"/>
<path d="M24.619 26.25L23.6387 26.4474L23.8003 27.25H24.619V26.25ZM30.3771 25.1464L31.3366 24.8646L30.3771 25.1464ZM21.5554 21.4528L20.9505 20.6565L19.7939 21.535L21.0272 22.302L21.5554 21.4528ZM29.4922 25.25H24.619V27.25H29.4922V25.25ZM29.4176 25.4281C29.4135 25.4141 29.4099 25.3862 29.4172 25.3524C29.424 25.3204 29.4377 25.2961 29.4507 25.2802C29.4763 25.2491 29.498 25.25 29.4922 25.25V27.25C30.6602 27.25 31.7216 26.1758 31.3366 24.8646L29.4176 25.4281ZM24.7917 21.4166C26.3172 21.4166 27.329 22.0302 28.0363 22.8163C28.77 23.6317 29.1906 24.6551 29.4176 25.4281L31.3366 24.8646C31.067 23.9466 30.5368 22.6051 29.523 21.4785C28.4827 20.3224 26.9501 19.4166 24.7917 19.4166V21.4166ZM22.1602 22.2492C22.7994 21.7637 23.6428 21.4166 24.7917 21.4166V19.4166C23.199 19.4166 21.932 19.911 20.9505 20.6565L22.1602 22.2492ZM21.0272 22.302C22.7006 23.3427 23.3746 25.1361 23.6387 26.4474L25.5993 26.0525C25.2915 24.5241 24.4462 22.0731 22.0835 20.6037L21.0272 22.302Z" fill="#41300E"/>
<path d="M13.4446 21.4528L13.9728 22.302L15.2061 21.5349L14.0495 20.6565L13.4446 21.4528ZM4.62291 25.1464L5.58239 25.4281L4.62291 25.1464ZM10.3809 26.25V27.25H11.1996L11.3612 26.4474L10.3809 26.25ZM10.2083 21.4166C11.3572 21.4166 12.2006 21.7637 12.8398 22.2491L14.0495 20.6565C13.068 19.911 11.801 19.4166 10.2083 19.4166V21.4166ZM5.58239 25.4281C5.80941 24.6551 6.22999 23.6317 6.96374 22.8163C7.67107 22.0302 8.6828 21.4166 10.2083 21.4166V19.4166C8.04997 19.4166 6.51729 20.3224 5.47703 21.4785C4.46319 22.6051 3.93301 23.9466 3.66343 24.8646L5.58239 25.4281ZM5.50778 25.25C5.50196 25.25 5.52369 25.2491 5.54924 25.2802C5.56229 25.2961 5.57595 25.3204 5.5828 25.3524C5.59007 25.3862 5.58651 25.4141 5.58239 25.4281L3.66343 24.8646C3.27837 26.1758 4.33978 27.25 5.50778 27.25V25.25ZM10.3809 25.25H5.50778V27.25H10.3809V25.25ZM11.3612 26.4474C11.6253 25.1361 12.2993 23.3427 13.9728 22.302L12.9165 20.6036C10.5538 22.0731 9.70844 24.5241 9.40061 26.0525L11.3612 26.4474Z" fill="#41300E"/>
<path d="M17.5 20.4166C23.1028 20.4166 24.4005 24.7217 24.7011 26.716C24.7834 27.2621 24.3439 27.7083 23.7917 27.7083H11.2083C10.656 27.7083 10.2166 27.2621 10.2989 26.716C10.5995 24.7217 11.8972 20.4166 17.5 20.4166Z" stroke="#41300E" stroke-width="2" stroke-linecap="round"/>
</svg>
